<svg version="1.1" xmlns="http://www.w3.org/2000/svg" xmlns:xlink="http://www.w3.org/1999/xlink" width="512.000000pt" height="512.000000pt" viewBox="0,0,256,256"><g fill="#ff0000" fill-rule="nonzero" stroke="none" stroke-width="1" stroke-linecap="butt" stroke-linejoin="miter" stroke-miterlimit="10" stroke-dasharray="" stroke-dashoffset="0" font-family="none" font-weight="none" font-size="none" text-anchor="none" style="mix-blend-mode: normal"><g transform="translate(0.00123,0.05423) scale(0.5,0.5)"><g transform="translate(0,512) scale(0.1,-0.1)"><path d="M2320,5109c-315,-30 -618,-118 -905,-264c-260,-131 -473,-285 -673,-487l-102,-103l417,-693c230,-381 422,-693 427,-693c5,-1 305,502 667,1117l658,1119l-57,6c-79,9 -329,8 -432,-2z"></path><path d="M2723,4350l-411,-700h1279c703,0 1279,3 1279,6c0,19 -106,206 -181,318c-335,504 -842,878 -1412,1042c-65,19 -124,34 -130,34c-7,0 -197,-315 -424,-700z"></path><path d="M372,3886c-80,-133 -180,-343 -227,-476c-47,-134 -98,-342 -121,-495c-25,-166 -26,-542 -1,-705c18,-114 66,-330 86,-382l11,-28h816c663,0 815,2 811,13c-6,16 -1296,2159 -1306,2169c-4,4 -35,-39 -69,-96z"></path><path d="M3370,3330c0,-6 289,-512 642,-1125l642,-1115l64,98c75,116 197,360 246,493c51,139 103,343 128,504c29,186 31,539 5,720c-17,116 -51,271 -83,382l-15,53h-815c-560,0 -814,-3 -814,-10z"></path><path d="M3607,2229c-79,-125 -1267,-2213 -1262,-2218c4,-3 106,-6 228,-6c250,1 372,15 597,70c336,83 646,230 925,440c143,107 348,302 342,324c-4,17 -794,1390 -807,1405c-4,4 -15,-2 -23,-15z"></path><path d="M240,1484c0,-20 116,-226 190,-337c293,-440 713,-779 1204,-972c108,-42 311,-103 396,-118c35,-7 35,-7 13,11l-22,17l396,690c217,380 397,696 400,703c4,9 -257,12 -1286,12c-710,0 -1291,-3 -1291,-6z"></path></g></g></g></svg>